Coordinates
version=1
nRows=19
nColumns=34
inDegrees=no

Units are S.I. units (second, meters, Newtons, ...)
If the header above contains a line with 'inDegrees', this indicates whether rotational values are in degrees (yes) or radians (no).

endheader
time	pelvis_tilt	pelvis_list	pelvis_rotation	pelvis_tx	pelvis_ty	pelvis_tz	hip_flexion_r	hip_adduction_r	hip_rotation_r	knee_angle_r	ankle_angle_r	subtalar_angle_r	mtp_angle_r	hip_flexion_l	hip_adduction_l	hip_rotation_l	knee_angle_l	ankle_angle_l	subtalar_angle_l	mtp_angle_l	lumbar_extension	lumbar_bending	lumbar_rotation	arm_flex_r	arm_add_r	arm_rot_r	elbow_flex_r	pro_sup_r	arm_flex_l	arm_add_l	arm_rot_l	elbow_flex_l	pro_sup_l
0	-0.0987152	0.0227193	0.00402422	-1.14683	1.26935	-0.586292	0.0965189	-0.0627083	-0.115555	0.122889	0.299114	0.17393	0	0.0716482	-0.00416313	0.0826196	0.0688962	0.198456	-0.0313372	0	-0.0279276	-0.0321451	-0.0469386	-0.000818292	-0.130306	0.107946	0.604431	2.09	-0.00190772	-0.117777	-0.0137668	0.556102	2.09
0.01	-0.0983141	0.0232143	0.00390058	-1.14684	1.26938	-0.586281	0.0969365	-0.0633499	-0.116066	0.12459	0.299894	0.175142	0	0.0715835	-0.00366923	0.0822468	0.0696501	0.198793	-0.030656	0	-0.0288518	-0.032703	-0.0468156	-0.000444688	-0.130045	0.107691	0.603535	2.09	-0.00162802	-0.117958	-0.0136956	0.556251	2.09
0.02	-0.0978777	0.0234951	0.00354878	-1.14685	1.26941	-0.586257	0.0974493	-0.0638113	-0.116749	0.126506	0.301208	0.176777	0	0.071576	-0.00338566	0.0814334	0.0706154	0.199601	-0.0295728	0	-0.0300495	-0.0330948	-0.0464826	-0.000130808	-0.129866	0.107398	0.603135	2.09	-0.00154756	-0.11822	-0.0132275	0.557096	2.09
0.03	-0.0974116	0.0235704	0.00296319	-1.14686	1.26944	-0.586222	0.0983133	-0.0641767	-0.117991	0.129042	0.3032	0.180046	0	0.0717028	-0.00334446	0.0796604	0.0719647	0.201136	-0.0273342	0	-0.0314234	-0.0332567	-0.0459469	0.000172439	-0.129751	0.107246	0.603017	2.09	-0.00150659	-0.11839	-0.0129446	0.558175	2.09
0.04	-0.0969223	0.0234944	0.0024402	-1.14687	1.26948	-0.586191	0.0992156	-0.064398	-0.119238	0.131712	0.305174	0.183966	0	0.0718899	-0.00347601	0.0777098	0.0735394	0.202791	-0.0247087	0	-0.0327866	-0.0331488	-0.0455754	0.000538933	-0.129671	0.107312	0.602744	2.09	-0.00138851	-0.118311	-0.0135299	0.558825	2.09
0.05	-0.0963209	0.023392	0.00208257	-1.14686	1.26952	-0.586155	0.100041	-0.0645777	-0.120836	0.134618	0.307343	0.188191	0	0.071961	-0.00366358	0.0757279	0.0751372	0.204557	-0.0216427	0	-0.0343033	-0.0330054	-0.0454206	0.000950839	-0.129506	0.10712	0.602311	2.09	-0.00128979	-0.118322	-0.0139118	0.559373	2.09
0.06	-0.0957654	0.0233602	0.00176509	-1.14685	1.26953	-0.586099	0.100777	-0.0647979	-0.122834	0.137282	0.309522	0.192269	0	0.0721251	-0.00383465	0.0736033	0.0767841	0.206617	-0.0182221	0	-0.0359065	-0.0330793	-0.0452123	0.00133354	-0.129077	0.106167	0.601816	2.09	-0.00121943	-0.118612	-0.0134946	0.560065	2.09
0.07	-0.0954585	0.0234302	0.00120333	-1.14686	1.26951	-0.586013	0.101902	-0.0650466	-0.124497	0.140011	0.311569	0.195706	0	0.0726914	-0.00394961	0.0710922	0.0787145	0.209046	-0.0146525	0	-0.0373445	-0.0333156	-0.0446324	0.00160893	-0.128433	0.104573	0.60149	2.09	-0.000999702	-0.118962	-0.0129809	0.560442	2.09
0.08	-0.0953893	0.0236603	0.000265513	-1.14686	1.26947	-0.585883	0.103841	-0.0653496	-0.125076	0.143662	0.313765	0.198194	0	0.0736407	-0.00389897	0.0680695	0.0809919	0.21174	-0.010712	0	-0.0385403	-0.0336194	-0.0436721	0.00169789	-0.127834	0.103047	0.601619	2.09	-0.000591468	-0.11938	-0.0124338	0.560032	2.09
0.09	-0.0953445	0.0241351	-0.000895625	-1.14685	1.26941	-0.585718	0.106293	-0.0658497	-0.124764	0.148209	0.316322	0.200162	0	0.0747347	-0.00359907	0.0644095	0.0835541	0.214665	-0.00574109	0	-0.0397494	-0.0341366	-0.0425883	0.00170649	-0.127397	0.102081	0.601982	2.09	-0.000164162	-0.120047	-0.0115463	0.559054	2.09
0.1	-0.0951683	0.0247286	-0.00204063	-1.14684	1.26936	-0.585546	0.108831	-0.0665152	-0.124355	0.153194	0.319086	0.202438	0	0.0758579	-0.00324538	0.0602028	0.0864086	0.217866	0.000136295	0	-0.0412539	-0.0348521	-0.041625	0.00183661	-0.127031	0.10151	0.602227	2.09	0.00017019	-0.120676	-0.0112141	0.557977	2.09
0.11	-0.0949376	0.0251508	-0.0029907	-1.14684	1.26932	-0.585383	0.111408	-0.0671079	-0.124606	0.158448	0.321886	0.205646	0	0.0770952	-0.00315453	0.0559539	0.089547	0.221284	0.00607166	0	-0.0429941	-0.0354346	-0.0408839	0.00202253	-0.126621	0.100888	0.602546	2.09	0.000439968	-0.121039	-0.0117491	0.556863	2.09
0.12	-0.0947919	0.0253516	-0.00365971	-1.1468	1.26928	-0.58524	0.114095	-0.0676117	-0.125894	0.163899	0.324902	0.209893	0	0.0785384	-0.00329641	0.0519806	0.0929242	0.224867	0.0120399	0	-0.0446804	-0.0357367	-0.0403826	0.00206069	-0.126164	0.100073	0.603128	2.09	0.000610562	-0.121579	-0.0115364	0.555628	2.09
0.13	-0.0947318	0.0256613	-0.00407218	-1.14672	1.26922	-0.585146	0.116789	-0.0683422	-0.127689	0.169334	0.328293	0.214333	0	0.0801612	-0.00321605	0.0481084	0.0965452	0.228654	0.0185709	0	-0.046178	-0.0360593	-0.0402206	0.00198988	-0.125778	0.0994175	0.603743	2.09	0.00055224	-0.122565	-0.00984111	0.554261	2.09
0.14	-0.0947074	0.0262837	-0.0042503	-1.14661	1.26915	-0.585117	0.11957	-0.069491	-0.129474	0.174999	0.331923	0.218493	0	0.0819277	-0.002687	0.0442078	0.100399	0.232575	0.0254872	0	-0.0476108	-0.0366455	-0.040604	0.00197766	-0.125528	0.0993394	0.60429	2.09	0.000348158	-0.12343	-0.00856207	0.552374	2.09
0.15	-0.0947578	0.0269629	-0.00418831	-1.14648	1.26909	-0.585118	0.122659	-0.0708525	-0.131976	0.181287	0.335659	0.223553	0	0.0839033	-0.00209854	0.0403036	0.104465	0.236532	0.0325416	0	-0.0491054	-0.0372756	-0.041477	0.00202023	-0.125308	0.0996271	0.604851	2.09	0.000342035	-0.123614	-0.00959368	0.54938	2.09
0.16	-0.0948636	0.0274309	-0.00404551	-1.14634	1.26905	-0.585092	0.125783	-0.0721002	-0.135737	0.187656	0.339436	0.230142	0	0.0860774	-0.00183317	0.0362636	0.108808	0.240698	0.0399994	0	-0.0506962	-0.0376802	-0.0423135	0.00193907	-0.125039	0.0996674	0.605467	2.09	0.000594741	-0.123399	-0.0119761	0.545601	2.09
0.17	-0.0949067	0.027735	-0.00402277	-1.14618	1.26898	-0.58502	0.12839	-0.073055	-0.139478	0.193164	0.343077	0.236476	0	0.0883431	-0.00179065	0.0320654	0.113547	0.245286	0.0476684	0	-0.0523998	-0.0379442	-0.0427709	0.00157424	-0.124873	0.0994942	0.606379	2.09	0.000645175	-0.123436	-0.01341	0.542135	2.09
0.18	-0.0949367	0.0279905	-0.00404459	-1.14598	1.26888	-0.584929	0.130527	-0.0737353	-0.141745	0.19782	0.34646	0.240876	0	0.0907985	-0.00178023	0.0279659	0.118751	0.250178	0.0550852	0	-0.0541028	-0.0382408	-0.0431921	0.000956206	-0.124938	0.0998094	0.607786	2.09	0.000218442	-0.123883	-0.0136892	0.53915	2.09
